<svg width="16" height="28" viewBox="0 0 16 28" fill="none" xmlns="http://www.w3.org/2000/svg">
<path d="M14.7081 1.292C14.8012 1.38489 14.8751 1.49524 14.9255 1.61674C14.9759 1.73823 15.0019 1.86847 15.0019 2C15.0019 2.13154 14.9759 2.26178 14.9255 2.38327C14.8751 2.50476 14.8012 2.61511 14.7081 2.708L3.41408 14L14.7081 25.292C14.8959 25.4798 15.0013 25.7345 15.0013 26C15.0013 26.2656 14.8959 26.5202 14.7081 26.708C14.5203 26.8958 14.2656 27.0013 14.0001 27.0013C13.7345 27.0013 13.4799 26.8958 13.2921 26.708L1.29208 14.708C1.19895 14.6151 1.12507 14.5048 1.07465 14.3833C1.02424 14.2618 0.998291 14.1315 0.998291 14C0.998291 13.8685 1.02424 13.7382 1.07465 13.6167C1.12507 13.4952 1.19895 13.3849 1.29208 13.292L13.2921 1.292C13.385 1.19888 13.4953 1.12499 13.6168 1.07458C13.7383 1.02416 13.8685 0.998215 14.0001 0.998215C14.1316 0.998215 14.2619 1.02416 14.3833 1.07458C14.5048 1.12499 14.6152 1.19888 14.7081 1.292Z" fill="white"/>
</svg>
