<svg width="16" height="28" viewBox="0 0 16 28" fill="none" xmlns="http://www.w3.org/2000/svg">
<path d="M1.29208 1.292C1.38497 1.19888 1.49532 1.12499 1.61681 1.07458C1.7383 1.02416 1.86854 0.998215 2.00008 0.998215C2.13161 0.998215 2.26186 1.02416 2.38335 1.07458C2.50484 1.12499 2.61519 1.19888 2.70808 1.292L14.7081 13.292C14.8012 13.3849 14.8751 13.4952 14.9255 13.6167C14.9759 13.7382 15.0019 13.8685 15.0019 14C15.0019 14.1315 14.9759 14.2618 14.9255 14.3833C14.8751 14.5048 14.8012 14.6151 14.7081 14.708L2.70808 26.708C2.52031 26.8958 2.26563 27.0013 2.00008 27.0013C1.73453 27.0013 1.47985 26.8958 1.29208 26.708C1.1043 26.5202 0.998815 26.2656 0.998815 26C0.998815 25.7345 1.1043 25.4798 1.29208 25.292L12.5861 14L1.29208 2.708C1.19895 2.61511 1.12507 2.50476 1.07465 2.38327C1.02424 2.26178 0.998291 2.13154 0.998291 2C0.998291 1.86847 1.02424 1.73823 1.07465 1.61674C1.12507 1.49524 1.19895 1.38489 1.29208 1.292Z" fill="white"/>
</svg>
