<svg width="184" height="46" viewBox="0 0 184 46" fill="none" xmlns="http://www.w3.org/2000/svg">
<path d="M22.8731 0.500595C10.4497 0.500595 0.374268 10.5768 0.374268 22.9994C0.374268 35.4228 10.4504 45.4983 22.8731 45.4983C35.2958 45.4983 45.372 35.4221 45.372 22.9994C45.3585 10.576 35.2958 0.500595 22.8731 0.500595ZM22.981 35.8691C25.7463 32.7801 28.525 28.558 27.7965 25.1049C27.203 21.5977 24.5998 20.4513 22.8596 20.4781C21.1195 20.4512 18.5162 21.5977 17.9226 25.1049C17.1942 28.558 19.9728 32.7801 22.7381 35.8691C13.9839 35.7746 6.92913 28.6524 6.92913 19.8847C6.92913 11.0495 14.0917 3.90036 22.9135 3.90036C31.7487 3.90036 38.9115 11.0495 38.9115 19.8847C38.9249 28.6931 31.7894 35.8422 22.981 35.8691ZM114.921 36.4626C111.522 36.4626 108.285 35.6128 106.262 34.156C103.685 32.3485 102.282 28.9359 102.282 24.5923C102.282 16.4181 106.262 12.4792 114.557 12.4792C122.84 12.4792 126.832 16.4584 126.832 24.7677C126.819 32.4429 122.759 36.4626 114.921 36.4626ZM114.584 16.4589C110.079 16.4589 108.136 18.8735 108.136 24.4173C108.096 29.9614 110.16 32.4838 114.625 32.4838C119.022 32.4838 121.005 29.9614 121.005 24.3905C121.005 18.9408 118.995 16.4589 114.584 16.4589ZM142.533 31.8228C139.283 31.8228 138.217 31.6205 137.327 30.8786C136.477 30.1367 136.248 29.6241 136.14 27.331V15.5281C136.126 14.3276 135.128 13.3564 133.874 13.3294H130.879V25.9955C130.879 29.9342 131.27 31.6878 132.619 33.239C134.143 35.0331 136.409 35.829 139.984 35.829H145.226V31.8093L142.533 31.8228ZM173.868 13.3427H170.307C168.931 13.3697 167.758 14.1655 167.232 15.3122L158.316 35.8421H161.931C163.333 35.8287 164.547 35.0193 165.06 33.8592L166.463 30.6219H175.447L176.863 33.8997C177.389 35.0463 178.59 35.8421 179.979 35.8555H183.621L173.868 13.3427ZM167.596 26.6293L170.955 18.7382L174.313 26.6293H167.596ZM152.637 13.3427C151.396 13.3697 150.398 14.3274 150.371 15.5144V35.8419H153.298C154.539 35.8285 155.564 34.8707 155.577 33.6837V13.3414L152.637 13.3427ZM73.7538 13.3697C72.3779 13.3967 71.1909 14.206 70.6782 15.3391L65.1612 29.1923L59.2531 15.3662C58.7405 14.2061 57.5535 13.3967 56.1507 13.3699H52.549L62.504 35.8687H65.3636C66.7126 35.8418 67.8726 35.0729 68.3987 33.9668L77.7061 13.3688L73.7538 13.3697ZM85.6511 19.8579C86.5279 18.0773 88.322 17.4028 91.5997 17.3623H96.6256V13.3426H87.696C86.2661 13.3426 85.1601 13.4371 84.2292 13.6664C84.2292 13.6664 84.2022 13.6664 84.1887 13.6799C83.5143 13.8417 82.9477 14.071 82.4217 14.3543C81.0998 15.0153 80.3714 15.7976 80.3714 15.7976C79.5621 16.5935 78.8742 17.6052 78.3615 18.7788C77.5657 20.3975 77.2014 22.205 77.2014 24.4036V24.7678C77.2014 26.98 77.5657 28.7741 78.3615 30.4062C78.901 31.6337 79.616 32.6859 80.4927 33.5086C80.4927 33.5086 80.9648 33.9403 81.2211 34.1291C81.8686 34.6147 82.5295 34.9385 83.0556 35.1408C83.2714 35.2352 83.5007 35.3161 83.7435 35.3836C83.9728 35.451 84.1212 35.4915 84.1212 35.4915C85.0655 35.7208 86.212 35.8422 87.6958 35.8422H96.6254V31.836H89.7595C86.4817 31.7955 84.6876 31.1345 83.8108 29.3404C83.4736 28.6525 83.2713 27.7892 83.1768 26.737V26.5347H96.0588V22.6633H83.1768V22.461C83.2712 21.3954 83.4736 20.5456 83.8108 19.8576" fill="#F01018"/>
</svg>
