<svg width="23" height="23" viewBox="0 0 23 23" fill="none" xmlns="http://www.w3.org/2000/svg">
<path d="M16.8791 14.8695C18.2711 12.9701 18.8945 10.6152 18.6247 8.2759C18.3549 5.9366 17.2118 3.78542 15.424 2.25275C13.6363 0.720073 11.3358 -0.0810704 8.98271 0.00959728C6.62965 0.100265 4.39759 1.07606 2.73308 2.74175C1.06858 4.40745 0.0943815 6.64021 0.00539765 8.99334C-0.0835862 11.3465 0.719203 13.6464 2.25316 15.4331C3.78711 17.2197 5.9391 18.3613 8.2786 18.6294C10.6181 18.8975 12.9726 18.2724 14.8709 16.8791H14.8695C14.9126 16.9366 14.9586 16.9912 15.0104 17.0444L20.5448 22.5788C20.8143 22.8485 21.18 23.0002 21.5613 23.0003C21.9426 23.0004 22.3084 22.8491 22.5781 22.5795C22.8478 22.31 22.9994 21.9443 22.9996 21.563C22.9997 21.1817 22.8484 20.8159 22.5788 20.5462L17.0444 15.0118C16.9931 14.9598 16.9378 14.9117 16.8791 14.8681V14.8695ZM17.25 9.34375C17.25 10.382 17.0455 11.4101 16.6482 12.3693C16.2509 13.3286 15.6685 14.2001 14.9343 14.9343C14.2002 15.6685 13.3286 16.2508 12.3693 16.6482C11.4101 17.0455 10.382 17.25 9.34376 17.25C8.3055 17.25 7.2774 17.0455 6.31817 16.6482C5.35894 16.2508 4.48736 15.6685 3.7532 14.9343C3.01903 14.2001 2.43666 13.3286 2.03934 12.3693C1.64201 11.4101 1.43751 10.382 1.43751 9.34375C1.43751 7.24688 2.27049 5.2359 3.7532 3.75319C5.23591 2.27048 7.24689 1.4375 9.34376 1.4375C11.4406 1.4375 13.4516 2.27048 14.9343 3.75319C16.417 5.2359 17.25 7.24688 17.25 9.34375Z" fill="white"/>
</svg>
